<svg width="29" height="29" viewBox="0 0 29 29" fill="none" xmlns="http://www.w3.org/2000/svg">
<path d="M27.0781 0.828125H1.92188C1.31689 0.828125 0.828125 1.31689 0.828125 1.92188V27.0781C0.828125 27.6831 1.31689 28.1719 1.92188 28.1719H27.0781C27.6831 28.1719 28.1719 27.6831 28.1719 27.0781V1.92188C28.1719 1.31689 27.6831 0.828125 27.0781 0.828125ZM25.9844 25.9844H19.6919V17.583H23.2466L23.7798 13.4575H19.6919V10.8223C19.6919 9.62598 20.0234 8.8125 21.7358 8.8125H23.9199V5.12109C23.5405 5.06982 22.2451 4.95703 20.7344 4.95703C17.583 4.95703 15.4263 6.88135 15.4263 10.4121V13.4541H11.8647V17.5796H15.4297V25.9844H3.01562V3.01562H25.9844V25.9844Z" fill="white"/>
</svg>
