<svg width="29" height="29" viewBox="0 0 29 29" fill="none" xmlns="http://www.w3.org/2000/svg">
<path d="M14.5 7.4893C10.6206 7.4893 7.48979 10.6202 7.48979 14.4996C7.48979 18.3789 10.6206 21.5098 14.5 21.5098C18.3794 21.5098 21.5103 18.3789 21.5103 14.4996C21.5103 10.6202 18.3794 7.4893 14.5 7.4893ZM14.5 19.0557C11.9913 19.0557 9.94389 17.0083 9.94389 14.4996C9.94389 11.9908 11.9913 9.9434 14.5 9.9434C17.0088 9.9434 19.0562 11.9908 19.0562 14.4996C19.0562 17.0083 17.0088 19.0557 14.5 19.0557ZM21.7974 5.5684C20.8916 5.5684 20.1602 6.29984 20.1602 7.20561C20.1602 8.11137 20.8916 8.84281 21.7974 8.84281C22.7032 8.84281 23.4346 8.11479 23.4346 7.20561C23.4349 6.99053 23.3927 6.77751 23.3105 6.57876C23.2284 6.38 23.1078 6.19941 22.9557 6.04732C22.8036 5.89524 22.623 5.77466 22.4243 5.69247C22.2255 5.61029 22.0125 5.56813 21.7974 5.5684ZM28.1651 14.4996C28.1651 12.6128 28.1822 10.7432 28.0762 8.8599C27.9703 6.6724 27.4712 4.731 25.8716 3.13139C24.2686 1.52836 22.3306 1.03275 20.1431 0.926798C18.2564 0.820841 16.3868 0.837931 14.5035 0.837931C12.6167 0.837931 10.7471 0.820841 8.86381 0.926798C6.67631 1.03275 4.7349 1.53178 3.13529 3.13139C1.53227 4.73441 1.03666 6.6724 0.930704 8.8599C0.824747 10.7466 0.841837 12.6163 0.841837 14.4996C0.841837 16.3829 0.824747 18.2559 0.930704 20.1392C1.03666 22.3267 1.53568 24.2681 3.13529 25.8677C4.73832 27.4707 6.67631 27.9663 8.86381 28.0723C10.7505 28.1783 12.6202 28.1612 14.5035 28.1612C16.3902 28.1612 18.2598 28.1783 20.1431 28.0723C22.3306 27.9663 24.272 27.4673 25.8716 25.8677C27.4747 24.2647 27.9703 22.3267 28.0762 20.1392C28.1856 18.2559 28.1651 16.3863 28.1651 14.4996ZM25.1573 22.5591C24.9078 23.1812 24.607 23.646 24.125 24.1245C23.6431 24.6065 23.1817 24.9073 22.5596 25.1568C20.7618 25.8711 16.4927 25.7105 14.5 25.7105C12.5074 25.7105 8.2349 25.8711 6.43705 25.1602C5.81498 24.9107 5.35014 24.6099 4.87162 24.128C4.38969 23.646 4.08891 23.1846 3.8394 22.5625C3.12846 20.7613 3.2891 16.4922 3.2891 14.4996C3.2891 12.5069 3.12846 8.23442 3.8394 6.43656C4.08891 5.81449 4.38969 5.34965 4.87162 4.87113C5.35356 4.39262 5.81498 4.08842 6.43705 3.83891C8.2349 3.12797 12.5074 3.28861 14.5 3.28861C16.4927 3.28861 20.7652 3.12797 22.563 3.83891C23.1851 4.08842 23.6499 4.3892 24.1285 4.87113C24.6104 5.35307 24.9112 5.81449 25.1607 6.43656C25.8716 8.23442 25.711 12.5069 25.711 14.4996C25.711 16.4922 25.8716 20.7613 25.1573 22.5591Z" fill="white"/>
</svg>
