<svg width="29" height="25" viewBox="0 0 29 25" fill="none" xmlns="http://www.w3.org/2000/svg">
<path d="M25.2479 7.06724V7.79641C25.2479 15.1391 19.677 23.5537 9.48329 23.5537C6.47398 23.5602 3.52858 22.6857 1.01038 21.0381C1.44771 21.0975 1.88886 21.1243 2.33017 21.1183C4.82465 21.1251 7.24899 20.2931 9.2135 18.7558C8.05462 18.7387 6.9306 18.3568 6.0012 17.6643C5.0718 16.9719 4.3843 16.0041 4.03642 14.8985C4.38161 14.9717 4.73355 15.0083 5.08642 15.0079C5.57916 15.008 6.06968 14.9418 6.54475 14.811C5.28955 14.5608 4.16031 13.8821 3.35027 12.8912C2.54022 11.9002 2.09972 10.6586 2.10413 9.3787V9.30578C2.87209 9.73477 3.73306 9.97003 4.61246 9.9912C3.44185 9.22088 2.60957 8.03264 2.28567 6.66927C1.96176 5.30589 2.17069 3.87029 2.86975 2.65578C4.26265 4.36895 6.00049 5.76981 7.97031 6.76728C9.94012 7.76475 12.0978 8.3365 14.3031 8.44537C14.1939 8.03151 14.1424 7.60456 14.15 7.17662C14.1089 6.04561 14.4174 4.92943 15.0335 3.98006C15.6496 3.0307 16.5433 2.29427 17.5929 1.87107C18.6426 1.44786 19.7971 1.35844 20.8994 1.61498C22.0017 1.87152 22.9982 2.46155 23.7531 3.30474C24.994 3.05432 26.1843 2.59839 27.275 1.95578C26.8613 3.26199 25.9815 4.37027 24.8031 5.06932C25.9038 4.91765 26.977 4.60822 27.9895 4.15057C27.2557 5.2776 26.3274 6.26519 25.2479 7.06724V7.06724Z" stroke="white" stroke-linecap="round" stroke-linejoin="round"/>
</svg>
